# xmcd CD database file
#
# Track frame offsets:
#	150
#	15238
#	31986
#	46607
#	61966
#	78530
#	97470
#	110329
#	124755
#	135503
#
# Disc length: 1995 seconds
#
# Revision: 0
# Processed by: cddbd v1.5.1PL0 Copyright (c) Steve Scherf et al.
# Submitted via: CDex 1.51
#
DISCID=7907c90a
DTITLE=DJ's Choice - Kids Country Hits
DYEAR=2003
DGENRE=Country
TTITLE0=Boot Scootin' Boogie
TTITLE1=Wide Open Spaces
TTITLE2=You're Still The One
TTITLE3=Achy Breaky Heart
TTITLE4=Elvira
TTITLE5=I Hope You Dance
TTITLE6=This Kiss
TTITLE7=Thank God I'm A Country Boy
TTITLE8=Crazy
TTITLE9=God Bless The USA
EXTD=YEAR: 2003
EXTT0=
EXTT1=
EXTT2=
EXTT3=
EXTT4=
EXTT5=
EXTT6=
EXTT7=
EXTT8=
EXTT9=
PLAYORDER=
